<svg width="42" height="42" viewBox="0 0 42 42" fill="none" xmlns="http://www.w3.org/2000/svg">
<path d="M15.1732 23.1711C15.1732 22.645 14.7368 22.2188 14.1983 22.2188H10.7962C10.2583 22.2188 9.82178 22.645 9.82178 23.1711V26.4974C9.82178 27.0242 10.2583 27.4506 10.7962 27.4506H14.1983C14.7368 27.4506 15.1732 27.0242 15.1732 26.4974V23.1711Z" fill="#85D2D0"/>
<path d="M23.6755 23.1711C23.6755 22.645 23.239 22.2188 22.7016 22.2188H19.299C18.7612 22.2188 18.3246 22.645 18.3246 23.1711V26.4974C18.3246 27.0242 18.7612 27.4506 19.299 27.4506H22.7016C23.239 27.4506 23.6755 27.0242 23.6755 26.4974V23.1711Z" fill="#85D2D0"/>
<path d="M32.1783 23.1711C32.1783 22.645 31.7418 22.2188 31.2039 22.2188H27.8018C27.2633 22.2188 26.8268 22.645 26.8268 23.1711V26.4974C26.8268 27.0242 27.2633 27.4506 27.8018 27.4506H31.2039C31.7418 27.4506 32.1783 27.0242 32.1783 26.4974V23.1711Z" fill="#85D2D0"/>
<path d="M15.1732 31.4858C15.1732 30.9589 14.7368 30.533 14.1983 30.533H10.7962C10.2583 30.533 9.82178 30.9589 9.82178 31.4858V34.8115C9.82178 35.338 10.2583 35.7643 10.7962 35.7643H14.1983C14.7368 35.7643 15.1732 35.3379 15.1732 34.8115V31.4858Z" fill="#85D2D0"/>
<path d="M23.6755 31.4858C23.6755 30.9589 23.239 30.533 22.7016 30.533H19.299C18.7612 30.533 18.3246 30.9589 18.3246 31.4858V34.8115C18.3246 35.338 18.7612 35.7643 19.299 35.7643H22.7016C23.239 35.7643 23.6755 35.3379 23.6755 34.8115V31.4858Z" fill="#85D2D0"/>
<path d="M32.1783 31.4858C32.1783 30.9589 31.7418 30.533 31.2043 30.533H27.8018C27.2633 30.533 26.8268 30.9589 26.8268 31.4858V34.8115C26.8268 35.338 27.2633 35.7643 27.8018 35.7643H31.2043C31.7418 35.7643 32.1783 35.3379 32.1783 34.8115V31.4858Z" fill="#85D2D0"/>
<path d="M38.2616 4.67657V9.75714C38.2616 12.0535 36.3564 13.904 34.0084 13.904H31.3253C28.977 13.904 27.0466 12.0535 27.0466 9.75714V4.65833H14.9534V9.75714C14.9534 12.0535 13.0231 13.904 10.6751 13.904H7.99155C5.64355 13.904 3.7385 12.0535 3.7385 9.75714V4.67657C1.68632 4.73705 0 6.39751 0 8.43843V38.213C0 40.2923 1.72354 42 3.84998 42H38.15C40.2733 42 42 40.2888 42 38.213V8.43843C42 6.39751 40.3138 4.73705 38.2616 4.67657ZM37.0154 36.3589C37.0154 37.2575 36.2703 37.9865 35.351 37.9865H6.57571C5.6564 37.9865 4.91131 37.2575 4.91131 36.3589V20.9792C4.91131 20.0803 5.65631 19.3513 6.57571 19.3513H35.3509C36.2702 19.3513 37.0153 20.0803 37.0153 20.9792L37.0154 36.3589Z" fill="#85D2D0"/>
<path d="M7.98213 11.1803H10.6361C11.4416 11.1803 12.0948 10.5426 12.0948 9.75488V1.42592C12.0948 0.638148 11.4416 0 10.6361 0H7.98213C7.17649 0 6.52344 0.638148 6.52344 1.42592V9.75488C6.52344 10.5426 7.17649 11.1803 7.98213 11.1803Z" fill="#85D2D0"/>
<path d="M31.2912 11.1803H33.9451C34.7501 11.1803 35.4033 10.5426 35.4033 9.75488V1.42592C35.4034 0.638148 34.7502 0 33.9451 0H31.2912C30.4857 0 29.8326 0.638148 29.8326 1.42592V9.75488C29.8326 10.5426 30.4857 11.1803 31.2912 11.1803Z" fill="#85D2D0"/>
</svg>
