<svg width="58" height="52" viewBox="0 0 58 52" fill="none" xmlns="http://www.w3.org/2000/svg">
<path d="M29 47C28.3167 47 27.6578 46.7565 27.1444 46.3142C25.2053 44.6467 23.3358 43.0796 21.6864 41.6972L21.678 41.69C16.8422 37.6371 12.6663 34.1369 9.76074 30.689C6.51282 26.8345 5 23.1799 5 19.1874C5 15.3084 6.35242 11.7298 8.80786 9.11025C11.2926 6.45976 14.702 5 18.4092 5C21.1799 5 23.7174 5.86152 25.9509 7.56044C27.0781 8.418 28.0999 9.46753 29 10.6917C29.9005 9.46753 30.9219 8.418 32.0494 7.56044C34.283 5.86152 36.8204 5 39.5912 5C43.298 5 46.7078 6.45976 49.1925 9.11025C51.6479 11.7298 53 15.3084 53 19.1874C53 23.1799 51.4875 26.8345 48.2396 30.6887C45.3341 34.1369 41.1586 37.6367 36.3235 41.6893C34.6711 43.0738 32.7987 44.6434 30.8552 46.315C30.3422 46.7565 29.683 47 29 47ZM18.4092 7.76538C15.4967 7.76538 12.8212 8.90855 10.8748 10.9846C8.89941 13.0919 7.8114 16.005 7.8114 19.1874C7.8114 22.5453 9.08032 25.5483 11.9254 28.9246C14.6753 32.1881 18.7655 35.6161 23.5013 39.5856L23.5101 39.5928C25.1658 40.9805 27.0426 42.5537 28.996 44.2335C30.9611 42.5505 32.8408 40.9747 34.4998 39.5848C39.2352 35.6154 43.3251 32.1881 46.075 28.9246C48.9197 25.5483 50.1886 22.5453 50.1886 19.1874C50.1886 16.005 49.1006 13.0919 47.1252 10.9846C45.1792 8.90855 42.5033 7.76538 39.5912 7.76538C37.4576 7.76538 35.4988 8.43241 33.7692 9.74775C32.2278 10.9205 31.1541 12.4029 30.5245 13.4402C30.2008 13.9736 29.631 14.292 29 14.292C28.369 14.292 27.7992 13.9736 27.4755 13.4402C26.8463 12.4029 25.7726 10.9205 24.2308 9.74775C22.5012 8.43241 20.5424 7.76538 18.4092 7.76538Z" fill="#E57F84"/>
</svg>
