<svg width="87" height="80" viewBox="0 0 87 80" fill="none" xmlns="http://www.w3.org/2000/svg">
<rect width="87" height="80" rx="40" fill="#E0A6FF"/>
<path d="M64.4425 58.1608L57.9801 51.6598C56.2604 49.9302 56.0369 46.8962 56.8913 44.6052C57.6608 42.5412 58.0648 40.3344 58.0648 38.0633C58.0648 33.0838 56.1371 28.4033 52.6362 24.8832C49.1352 21.362 44.4827 19.4231 39.533 19.4231C34.5821 19.4231 29.9285 21.362 26.4287 24.8832C22.9277 28.4033 21 33.0838 21 38.0633C21 43.0428 22.9277 47.7234 26.4287 51.2435C29.9296 54.7636 34.5821 56.7025 39.533 56.7025C41.9176 56.7025 44.2306 56.2463 46.3785 55.3815C48.6365 54.4724 51.6277 54.665 53.3485 56.3946L59.7735 62.8568C61.4931 64.5864 63.9328 64.9374 65.222 63.6397C66.5111 62.3419 66.1621 59.8904 64.4425 58.1608ZM39.5319 50.0598C36.3447 50.0598 33.3502 48.813 31.0977 46.5474C28.8452 44.2819 27.6044 41.269 27.6044 38.0644C27.6044 34.8599 28.8452 31.8481 31.0977 29.5814C33.3513 27.3159 36.3458 26.068 39.5319 26.068C42.7179 26.068 45.7114 27.3159 47.965 29.5814C50.2175 31.847 51.4582 34.8599 51.4582 38.0644C51.4582 41.269 50.2175 44.2808 47.965 46.5463C45.7125 48.813 42.7179 50.0598 39.5319 50.0598Z" fill="#6B3C85"/>
</svg>
