<svg width="53" height="52" viewBox="0 0 53 52" fill="none" xmlns="http://www.w3.org/2000/svg">
<path d="M47.7811 5.16835C47.5897 4.99117 47.3173 4.95006 47.0864 5.06307L5.37193 25.5177C5.14736 25.6279 5.00274 25.8643 5.00004 26.1256C4.99734 26.3869 5.1372 26.6266 5.35959 26.7418L17.1647 32.856C17.3812 32.9682 17.6393 32.9428 17.8327 32.7903L29.3105 23.7368L20.2999 33.5183C20.1714 33.6579 20.1058 33.8491 20.12 34.0431L21.0171 46.3736C21.037 46.6469 21.2106 46.8805 21.4573 46.9661C21.5232 46.9889 21.591 47 21.6579 47C21.8416 47 22.0203 46.9168 22.1446 46.7649L28.4104 39.1022L36.1562 43.008C36.3243 43.0928 36.5189 43.0963 36.6898 43.0179C36.8606 42.9394 36.9907 42.7866 37.0465 42.5991L47.9704 5.88154C48.0468 5.62513 47.9724 5.34553 47.7811 5.16835Z" fill="#E57F84"/>
</svg>
