<svg width="37" height="41" viewBox="0 0 37 41" fill="none" xmlns="http://www.w3.org/2000/svg">
<path d="M18.2202 19.7497C21.155 19.7497 23.6964 18.7766 25.7728 16.8566C27.8493 14.937 28.9019 12.5881 28.9019 9.87456C28.9019 7.16193 27.8493 4.81278 25.7725 2.89249C23.6957 0.973129 21.1547 0 18.2202 0C15.285 0 12.7443 0.973129 10.6679 2.8928C8.5914 4.81247 7.53845 7.16162 7.53845 9.87456C7.53845 12.5881 8.5914 14.9373 10.6682 16.8569C12.745 18.7763 15.286 19.7497 18.2202 19.7497Z" fill="#85D2D0"/>
<path d="M36.9103 31.5268C36.8504 30.7279 36.7293 29.8564 36.551 28.9362C36.371 28.009 36.1392 27.1325 35.8618 26.3314C35.5752 25.5035 35.1854 24.6858 34.7036 23.9022C34.2035 23.0889 33.6162 22.3807 32.9571 21.798C32.2678 21.1883 31.424 20.6982 30.4482 20.3406C29.4758 19.985 28.3981 19.8048 27.2453 19.8048C26.7926 19.8048 26.3548 19.9765 25.5093 20.4855C24.9889 20.7992 24.3802 21.1621 23.7008 21.5634C23.1198 21.9056 22.3328 22.2262 21.3608 22.5165C20.4124 22.8002 19.4494 22.9441 18.499 22.9441C17.5486 22.9441 16.586 22.8002 15.6365 22.5165C14.6655 22.2265 13.8785 21.9059 13.2982 21.5637C12.6252 21.1661 12.0162 20.8033 11.488 20.4852C10.6435 19.9762 10.2053 19.8045 9.75262 19.8045C8.59952 19.8045 7.52221 19.985 6.55013 20.341C5.575 20.6979 4.73082 21.188 4.04092 21.7983C3.38215 22.3814 2.79444 23.0892 2.29503 23.9022C1.81356 24.6858 1.42378 25.5031 1.13686 26.3318C0.859749 27.1328 0.627979 28.009 0.447976 28.9362C0.269665 29.8552 0.148536 30.727 0.0886479 31.5277C0.0297749 32.3122 0 33.1265 0 33.9488C0 36.089 0.735913 37.8216 2.1871 39.0994C3.62035 40.3603 5.51681 41 7.82301 41H29.177C31.4832 41 33.379 40.3607 34.8126 39.0994C36.2641 37.8226 37 36.0896 37 33.9485C36.9997 33.1224 36.9696 32.3075 36.9103 31.5268Z" fill="#85D2D0"/>
</svg>
