<svg width="362" height="83" viewBox="0 0 362 83" fill="none" xmlns="http://www.w3.org/2000/svg">
<path d="M36.9 37.66C38.02 37.66 38.9 37.98 39.54 38.62C40.22 39.22 40.56 40.06 40.56 41.14V52.84C40.56 54.44 40.42 55.68 40.14 56.56C39.9 57.44 39.46 58.14 38.82 58.66C38.18 59.18 37.22 59.62 35.94 59.98C34.38 60.46 32.58 60.84 30.54 61.12C28.54 61.4 26.64 61.54 24.84 61.54C20.36 61.54 16.48 60.68 13.2 58.96C9.92 57.2 7.4 54.7 5.64 51.46C3.88 48.18 3 44.3 3 39.82C3 35.42 3.86 31.6 5.58 28.36C7.34 25.08 9.84 22.56 13.08 20.8C16.32 19.04 20.1 18.16 24.42 18.16C29.98 18.16 34.58 19.6 38.22 22.48C38.82 22.96 39.24 23.44 39.48 23.92C39.72 24.4 39.84 25 39.84 25.72C39.84 26.76 39.54 27.66 38.94 28.42C38.38 29.14 37.7 29.5 36.9 29.5C36.38 29.5 35.9 29.42 35.46 29.26C35.06 29.1 34.56 28.84 33.96 28.48C32.28 27.44 30.74 26.7 29.34 26.26C27.94 25.82 26.4 25.6 24.72 25.6C16.56 25.6 12.48 30.34 12.48 39.82C12.48 44.7 13.54 48.34 15.66 50.74C17.78 53.14 20.98 54.34 25.26 54.34C27.58 54.34 29.88 54.04 32.16 53.44V44.14H26.64C25.48 44.14 24.58 43.86 23.94 43.3C23.3 42.74 22.98 41.94 22.98 40.9C22.98 39.86 23.3 39.06 23.94 38.5C24.58 37.94 25.48 37.66 26.64 37.66H36.9Z" fill="#6B3C85"/>
<path d="M46.676 41H106.836" stroke="#85D2D0" stroke-width="8"/>
<path d="M64.6673 62.54C58.7473 62.54 54.2273 61.02 51.1073 57.98C48.0273 54.9 46.4873 50.42 46.4873 44.54V24.02C46.4873 22.62 46.9073 21.5 47.7473 20.66C48.5873 19.82 49.7073 19.4 51.1073 19.4C52.5073 19.4 53.6073 19.82 54.4073 20.66C55.2473 21.5 55.6673 22.62 55.6673 24.02V44.96C55.6673 48.32 56.4273 50.88 57.9473 52.64C59.5073 54.4 61.7473 55.28 64.6673 55.28C67.5873 55.28 69.8273 54.4 71.3873 52.64C72.9473 50.84 73.7273 48.28 73.7273 44.96V24.02C73.7273 22.62 74.1273 21.5 74.9273 20.66C75.7673 19.82 76.8873 19.4 78.2873 19.4C79.6873 19.4 80.8073 19.82 81.6473 20.66C82.4873 21.5 82.9073 22.62 82.9073 24.02V44.54C82.9073 50.38 81.3473 54.84 78.2273 57.92C75.1073 61 70.5873 62.54 64.6673 62.54Z" fill="#6B3C85"/>
<path d="M138.981 61.3C137.581 61.3 136.441 60.88 135.561 60.04C134.721 59.2 134.301 58.08 134.301 56.68V26.32H124.581C121.621 26.32 120.141 25.04 120.141 22.48C120.141 19.96 121.621 18.7 124.581 18.7H153.381C156.341 18.7 157.821 19.96 157.821 22.48C157.821 25.04 156.341 26.32 153.381 26.32H143.661V56.68C143.661 58.08 143.241 59.2 142.401 60.04C141.561 60.88 140.421 61.3 138.981 61.3ZM196.525 55.06C197.125 55.94 197.425 56.8 197.425 57.64C197.425 58.76 196.965 59.68 196.045 60.4C195.165 61.12 194.125 61.48 192.925 61.48C192.165 61.48 191.425 61.3 190.705 60.94C189.985 60.58 189.385 60.02 188.905 59.26L180.985 47.5C180.305 46.46 179.585 45.72 178.825 45.28C178.065 44.8 177.105 44.56 175.945 44.56H171.085V56.68C171.085 58.12 170.665 59.26 169.825 60.1C169.025 60.94 167.925 61.36 166.525 61.36C165.085 61.36 163.945 60.94 163.105 60.1C162.265 59.26 161.845 58.12 161.845 56.68V23.08C161.845 21.68 162.225 20.6 162.985 19.84C163.745 19.08 164.825 18.7 166.225 18.7H181.285C186.245 18.7 189.985 19.8 192.505 22C195.065 24.16 196.345 27.3 196.345 31.42C196.345 34.66 195.445 37.36 193.645 39.52C191.845 41.68 189.305 43.1 186.025 43.78C187.225 44.02 188.285 44.5 189.205 45.22C190.165 45.9 191.085 46.9 191.965 48.22L196.525 55.06ZM179.905 37.48C182.585 37.48 184.525 37.02 185.725 36.1C186.925 35.14 187.525 33.66 187.525 31.66C187.525 29.62 186.925 28.14 185.725 27.22C184.525 26.3 182.585 25.84 179.905 25.84H170.965V37.48H179.905ZM242.749 55.3C243.069 56.02 243.229 56.66 243.229 57.22C243.229 58.34 242.769 59.3 241.849 60.1C240.969 60.86 239.949 61.24 238.789 61.24C238.029 61.24 237.309 61.04 236.629 60.64C235.949 60.2 235.429 59.56 235.069 58.72L231.889 51.64H211.549L208.369 58.72C208.009 59.56 207.489 60.2 206.809 60.64C206.169 61.04 205.449 61.24 204.649 61.24C203.489 61.24 202.449 60.86 201.529 60.1C200.609 59.3 200.149 58.34 200.149 57.22C200.149 56.66 200.309 56.02 200.629 55.3L216.829 21.28C217.269 20.32 217.929 19.6 218.809 19.12C219.689 18.6 220.629 18.34 221.629 18.34C222.669 18.34 223.629 18.6 224.509 19.12C225.389 19.64 226.069 20.36 226.549 21.28L242.749 55.3ZM214.729 44.56H228.709L221.749 28.96L214.729 44.56ZM274.769 20.86C275.129 20.02 275.649 19.4 276.329 19C277.009 18.56 277.769 18.34 278.609 18.34C279.809 18.34 280.889 18.74 281.849 19.54C282.809 20.34 283.289 21.32 283.289 22.48C283.289 23.08 283.149 23.68 282.869 24.28L266.669 58.48C266.229 59.4 265.569 60.12 264.689 60.64C263.809 61.12 262.849 61.36 261.809 61.36C260.769 61.36 259.809 61.12 258.929 60.64C258.049 60.12 257.389 59.4 256.949 58.48L240.749 24.28C240.469 23.72 240.329 23.14 240.329 22.54C240.329 21.34 240.829 20.34 241.829 19.54C242.829 18.74 243.949 18.34 245.189 18.34C246.029 18.34 246.789 18.56 247.469 19C248.189 19.4 248.729 20.02 249.089 20.86L261.929 48.94L274.769 20.86ZM292.202 61C290.802 61 289.722 60.62 288.962 59.86C288.202 59.1 287.822 58.02 287.822 56.62V23.08C287.822 21.68 288.202 20.6 288.962 19.84C289.722 19.08 290.802 18.7 292.202 18.7H313.442C316.402 18.7 317.882 19.9 317.882 22.3C317.882 24.74 316.402 25.96 313.442 25.96H296.942V35.86H312.242C315.202 35.86 316.682 37.08 316.682 39.52C316.682 41.92 315.202 43.12 312.242 43.12H296.942V53.74H313.442C316.402 53.74 317.882 54.96 317.882 57.4C317.882 59.8 316.402 61 313.442 61H292.202ZM327.768 61C326.368 61 325.288 60.62 324.528 59.86C323.768 59.1 323.388 58.02 323.388 56.62V23.02C323.388 21.62 323.808 20.5 324.648 19.66C325.488 18.82 326.628 18.4 328.068 18.4C329.508 18.4 330.648 18.82 331.488 19.66C332.328 20.5 332.748 21.62 332.748 23.02V53.38H348.108C351.028 53.38 352.488 54.66 352.488 57.22C352.488 59.74 351.028 61 348.108 61H327.768Z" fill="#6B3C85"/>
<path d="M94.3898 18L111.055 40.3964C111.321 40.7539 111.319 41.2442 111.049 41.5988L94.3898 63.5" stroke="#85D2D0" stroke-width="8"/>
</svg>
