<svg width="349" height="83" viewBox="0 0 349 83" fill="none" xmlns="http://www.w3.org/2000/svg">
<path d="M36.9 37.66C38.02 37.66 38.9 37.98 39.54 38.62C40.22 39.22 40.56 40.06 40.56 41.14V52.84C40.56 54.44 40.42 55.68 40.14 56.56C39.9 57.44 39.46 58.14 38.82 58.66C38.18 59.18 37.22 59.62 35.94 59.98C34.38 60.46 32.58 60.84 30.54 61.12C28.54 61.4 26.64 61.54 24.84 61.54C20.36 61.54 16.48 60.68 13.2 58.96C9.92 57.2 7.4 54.7 5.64 51.46C3.88 48.18 3 44.3 3 39.82C3 35.42 3.86 31.6 5.58 28.36C7.34 25.08 9.84 22.56 13.08 20.8C16.32 19.04 20.1 18.16 24.42 18.16C29.98 18.16 34.58 19.6 38.22 22.48C38.82 22.96 39.24 23.44 39.48 23.92C39.72 24.4 39.84 25 39.84 25.72C39.84 26.76 39.54 27.66 38.94 28.42C38.38 29.14 37.7 29.5 36.9 29.5C36.38 29.5 35.9 29.42 35.46 29.26C35.06 29.1 34.56 28.84 33.96 28.48C32.28 27.44 30.74 26.7 29.34 26.26C27.94 25.82 26.4 25.6 24.72 25.6C16.56 25.6 12.48 30.34 12.48 39.82C12.48 44.7 13.54 48.34 15.66 50.74C17.78 53.14 20.98 54.34 25.26 54.34C27.58 54.34 29.88 54.04 32.16 53.44V44.14H26.64C25.48 44.14 24.58 43.86 23.94 43.3C23.3 42.74 22.98 41.94 22.98 40.9C22.98 39.86 23.3 39.06 23.94 38.5C24.58 37.94 25.48 37.66 26.64 37.66H36.9Z" fill="#E57F84"/>
<path d="M45 41H103" stroke="#85D2D0" stroke-width="8"/>
<path d="M63.14 62.54C57.22 62.54 52.7 61.02 49.58 57.98C46.5 54.9 44.96 50.42 44.96 44.54V24.02C44.96 22.62 45.38 21.5 46.22 20.66C47.06 19.82 48.18 19.4 49.58 19.4C50.98 19.4 52.08 19.82 52.88 20.66C53.72 21.5 54.14 22.62 54.14 24.02V44.96C54.14 48.32 54.9 50.88 56.42 52.64C57.98 54.4 60.22 55.28 63.14 55.28C66.06 55.28 68.3 54.4 69.86 52.64C71.42 50.84 72.2 48.28 72.2 44.96V24.02C72.2 22.62 72.6 21.5 73.4 20.66C74.24 19.82 75.36 19.4 76.76 19.4C78.16 19.4 79.28 19.82 80.12 20.66C80.96 21.5 81.38 22.62 81.38 24.02V44.54C81.38 50.38 79.82 54.84 76.7 57.92C73.58 61 69.06 62.54 63.14 62.54Z" fill="#E57F84"/>
<path d="M134.66 61.3C133.26 61.3 132.12 60.88 131.24 60.04C130.4 59.2 129.98 58.08 129.98 56.68V26.32H120.26C117.3 26.32 115.82 25.04 115.82 22.48C115.82 19.96 117.3 18.7 120.26 18.7H149.06C152.02 18.7 153.5 19.96 153.5 22.48C153.5 25.04 152.02 26.32 149.06 26.32H139.34V56.68C139.34 58.08 138.92 59.2 138.08 60.04C137.24 60.88 136.1 61.3 134.66 61.3ZM192.204 55.06C192.804 55.94 193.104 56.8 193.104 57.64C193.104 58.76 192.644 59.68 191.724 60.4C190.844 61.12 189.804 61.48 188.604 61.48C187.844 61.48 187.104 61.3 186.384 60.94C185.664 60.58 185.064 60.02 184.584 59.26L176.664 47.5C175.984 46.46 175.264 45.72 174.504 45.28C173.744 44.8 172.784 44.56 171.624 44.56H166.764V56.68C166.764 58.12 166.344 59.26 165.504 60.1C164.704 60.94 163.604 61.36 162.204 61.36C160.764 61.36 159.624 60.94 158.784 60.1C157.944 59.26 157.524 58.12 157.524 56.68V23.08C157.524 21.68 157.904 20.6 158.664 19.84C159.424 19.08 160.504 18.7 161.904 18.7H176.964C181.924 18.7 185.664 19.8 188.184 22C190.744 24.16 192.024 27.3 192.024 31.42C192.024 34.66 191.124 37.36 189.324 39.52C187.524 41.68 184.984 43.1 181.704 43.78C182.904 44.02 183.964 44.5 184.884 45.22C185.844 45.9 186.764 46.9 187.644 48.22L192.204 55.06ZM175.584 37.48C178.264 37.48 180.204 37.02 181.404 36.1C182.604 35.14 183.204 33.66 183.204 31.66C183.204 29.62 182.604 28.14 181.404 27.22C180.204 26.3 178.264 25.84 175.584 25.84H166.644V37.48H175.584ZM238.429 55.3C238.749 56.02 238.909 56.66 238.909 57.22C238.909 58.34 238.449 59.3 237.529 60.1C236.649 60.86 235.629 61.24 234.469 61.24C233.709 61.24 232.989 61.04 232.309 60.64C231.629 60.2 231.109 59.56 230.749 58.72L227.569 51.64H207.229L204.049 58.72C203.689 59.56 203.169 60.2 202.489 60.64C201.849 61.04 201.129 61.24 200.329 61.24C199.169 61.24 198.129 60.86 197.209 60.1C196.289 59.3 195.829 58.34 195.829 57.22C195.829 56.66 195.989 56.02 196.309 55.3L212.509 21.28C212.949 20.32 213.609 19.6 214.489 19.12C215.369 18.6 216.309 18.34 217.309 18.34C218.349 18.34 219.309 18.6 220.189 19.12C221.069 19.64 221.749 20.36 222.229 21.28L238.429 55.3ZM210.409 44.56H224.389L217.429 28.96L210.409 44.56ZM270.448 20.86C270.808 20.02 271.328 19.4 272.008 19C272.688 18.56 273.448 18.34 274.288 18.34C275.488 18.34 276.568 18.74 277.528 19.54C278.488 20.34 278.968 21.32 278.968 22.48C278.968 23.08 278.828 23.68 278.548 24.28L262.348 58.48C261.908 59.4 261.248 60.12 260.368 60.64C259.488 61.12 258.528 61.36 257.488 61.36C256.448 61.36 255.488 61.12 254.608 60.64C253.728 60.12 253.068 59.4 252.628 58.48L236.428 24.28C236.148 23.72 236.008 23.14 236.008 22.54C236.008 21.34 236.508 20.34 237.508 19.54C238.508 18.74 239.628 18.34 240.868 18.34C241.708 18.34 242.468 18.56 243.148 19C243.868 19.4 244.408 20.02 244.768 20.86L257.608 48.94L270.448 20.86ZM287.881 61C286.481 61 285.401 60.62 284.641 59.86C283.881 59.1 283.501 58.02 283.501 56.62V23.08C283.501 21.68 283.881 20.6 284.641 19.84C285.401 19.08 286.481 18.7 287.881 18.7H309.121C312.081 18.7 313.561 19.9 313.561 22.3C313.561 24.74 312.081 25.96 309.121 25.96H292.621V35.86H307.921C310.881 35.86 312.361 37.08 312.361 39.52C312.361 41.92 310.881 43.12 307.921 43.12H292.621V53.74H309.121C312.081 53.74 313.561 54.96 313.561 57.4C313.561 59.8 312.081 61 309.121 61H287.881ZM323.447 61C322.047 61 320.967 60.62 320.207 59.86C319.447 59.1 319.067 58.02 319.067 56.62V23.02C319.067 21.62 319.487 20.5 320.327 19.66C321.167 18.82 322.307 18.4 323.747 18.4C325.187 18.4 326.327 18.82 327.167 19.66C328.007 20.5 328.427 21.62 328.427 23.02V53.38H343.787C346.707 53.38 348.167 54.66 348.167 57.22C348.167 59.74 346.707 61 343.787 61H323.447Z" fill="#E57F84"/>
<path d="M91 18L107.077 40.4106C107.329 40.7622 107.327 41.236 107.071 41.5849L91 63.5" stroke="#85D2D0" stroke-width="8"/>
</svg>
